<svg xmlns="http://www.w3.org/2000/svg" version="1.1" xmlns:xlink="http://www.w3.org/1999/xlink" xmlns:svgjs="http://svgjs.dev/svgjs" width="1000" height="1000" viewBox="0 0 1000 1000"><rect width="1000" height="1000" fill="#ffffff"></rect><g transform="matrix(0.7,0,0,0.7,149.57575757575756,282.1265587044535)"><svg viewBox="0 0 396 247" data-background-color="#ffffff" preserveAspectRatio="xMidYMid meet" height="623" width="1000" xmlns="http://www.w3.org/2000/svg" xmlns:xlink="http://www.w3.org/1999/xlink"><g id="tight-bounds" transform="matrix(1,0,0,1,0.2400000000000091,-0.09999999999999432)"><svg viewBox="0 0 395.52 247.2" height="247.2" width="395.52"><g><svg></svg></g><g><svg viewBox="0 0 395.52 247.2" height="247.2" width="395.52"><g transform="matrix(1,0,0,1,75.54432,101.58415304347825)"><svg viewBox="0 0 244.43135999999998 44.031693913043476" height="44.031693913043476" width="244.43135999999998"><g><svg viewBox="0 0 244.43135999999998 44.031693913043476" height="44.031693913043476" width="244.43135999999998"><g><svg viewBox="0 0 244.43135999999998 44.031693913043476" height="44.031693913043476" width="244.43135999999998"><g><svg viewBox="0 0 244.43135999999998 44.031693913043476" height="44.031693913043476" width="244.43135999999998"><g id="textblocktransform"><svg viewBox="0 0 244.43135999999998 44.031693913043476" height="44.031693913043476" width="244.43135999999998" id="textblock"><g><svg viewBox="0 0 244.43135999999998 44.031693913043476" height="44.031693913043476" width="244.43135999999998"><g transform="matrix(1,0,0,1,0,0)"><svg width="244.43135999999998" viewBox="1.6100000143051147 -32.63999938964844 231.3199920654297 41.66999816894531" height="44.031693913043476" data-palette-color="#ff0000"><path d="M10.25 0.24Q8.08 0.24 6.37-1.07 4.66-2.39 4.66-5.74L4.66-5.74 4.66-19.58 2.49-19.58Q2.03-19.58 1.82-19.89 1.61-20.19 1.61-20.87L1.61-20.87 1.61-21.41Q1.61-22.09 1.82-22.4 2.03-22.71 2.49-22.71L2.49-22.71 4.66-22.71 5.18-27.25Q5.22-28.2 6.57-28.2L6.57-28.2 6.98-28.2Q7.67-28.2 7.98-27.97 8.3-27.73 8.3-27.25L8.3-27.25 8.3-22.71 11.94-22.71Q12.4-22.71 12.61-22.4 12.82-22.09 12.82-21.41L12.82-21.41 12.82-20.87Q12.82-20.19 12.61-19.89 12.4-19.58 11.94-19.58L11.94-19.58 8.3-19.58 8.3-6.08Q8.3-4.3 8.92-3.59 9.55-2.88 10.62-2.88L10.62-2.88Q11.45-2.88 11.9-2.98 12.35-3.08 12.5-3.08L12.5-3.08Q12.89-3.08 13.15-2.29 13.4-1.51 13.4-1.05L13.4-1.05Q13.4 0.24 10.25 0.24L10.25 0.24ZM20.53 0.07Q19.6 0.07 19.19-0.16 18.77-0.39 18.77-0.88L18.77-0.88 18.77-16.11Q18.77-18.95 18.5-20.2 18.23-21.46 18.23-21.58L18.23-21.58Q18.23-22.12 19.05-22.35 19.87-22.58 20.6-22.58L20.6-22.58Q21.19-22.58 21.48-21.96 21.77-21.34 21.99-20.21L21.99-20.21 22.12-19.7Q24.44-22.95 27.15-22.95L27.15-22.95Q28.39-22.95 29.03-22.5 29.66-22.05 29.66-21.29L29.66-21.29Q29.66-20.56 29.4-19.74 29.15-18.92 28.81-18.92L28.81-18.92Q28.64-18.92 28.2-19.07L28.2-19.07Q27.81-19.24 27.41-19.32 27.02-19.41 26.41-19.41L26.41-19.41Q25.41-19.41 24.52-18.82 23.63-18.24 23.02-17.53 22.41-16.82 22.41-16.75L22.41-16.75 22.41-0.88Q22.41-0.39 21.99-0.16 21.58 0.07 20.7 0.07L20.7 0.07 20.53 0.07ZM36.25-28.17Q34.52-28.17 34.52-29.13L34.52-29.13 34.52-31.69Q34.52-32.64 36.25-32.64L36.25-32.64 36.76-32.64Q38.52-32.64 38.52-31.69L38.52-31.69 38.52-29.13Q38.52-28.17 36.76-28.17L36.76-28.17 36.25-28.17ZM36.42 0.07Q34.69 0.07 34.69-0.88L34.69-0.88 34.69-21.83Q34.69-22.78 36.42-22.78L36.42-22.78 36.59-22.78Q38.35-22.78 38.35-21.83L38.35-21.83 38.35-0.88Q38.35 0.07 36.59 0.07L36.59 0.07 36.42 0.07ZM47.72 0.07Q46.79 0.07 46.38-0.16 45.96-0.39 45.96-0.88L45.96-0.88 45.96-16.11Q45.96-18.95 45.7-20.2 45.43-21.46 45.43-21.58L45.43-21.58Q45.43-22.12 46.24-22.35 47.06-22.58 47.8-22.58L47.8-22.58Q48.41-22.58 48.7-21.92 48.99-21.26 49.13-20.58 49.26-19.9 49.31-19.7L49.31-19.7Q50.68-21.24 52.47-22.09 54.26-22.95 56.1-22.95L56.1-22.95Q59.42-22.95 61.28-21.08 63.15-19.21 63.15-15.94L63.15-15.94 63.15-0.88Q63.15-0.39 62.74-0.16 62.32 0.07 61.42 0.07L61.42 0.07 61.22 0.07Q60.34 0.07 59.93-0.16 59.51-0.39 59.51-0.88L59.51-0.88 59.51-15.58Q59.51-17.58 58.35-18.69 57.19-19.8 55.1-19.8L55.1-19.8Q53.63-19.8 52.15-18.98 50.68-18.16 49.6-16.75L49.6-16.75 49.6-0.88Q49.6-0.39 49.19-0.16 48.77 0.07 47.89 0.07L47.89 0.07 47.72 0.07ZM71.91-28.17Q70.18-28.17 70.18-29.13L70.18-29.13 70.18-31.69Q70.18-32.64 71.91-32.64L71.91-32.64 72.43-32.64Q74.18-32.64 74.18-31.69L74.18-31.69 74.18-29.13Q74.18-28.17 72.43-28.17L72.43-28.17 71.91-28.17ZM72.08 0.07Q70.35 0.07 70.35-0.88L70.35-0.88 70.35-21.83Q70.35-22.78 72.08-22.78L72.08-22.78 72.26-22.78Q74.01-22.78 74.01-21.83L74.01-21.83 74.01-0.88Q74.01 0.07 72.26 0.07L72.26 0.07 72.08 0.07ZM88.15 0.24Q85.97 0.24 84.26-1.07 82.56-2.39 82.56-5.74L82.56-5.74 82.56-19.58 80.38-19.58Q79.92-19.58 79.71-19.89 79.5-20.19 79.5-20.87L79.5-20.87 79.5-21.41Q79.5-22.09 79.71-22.4 79.92-22.71 80.38-22.71L80.38-22.71 82.56-22.71 83.07-27.25Q83.12-28.2 84.46-28.2L84.46-28.2 84.88-28.2Q85.56-28.2 85.88-27.97 86.19-27.73 86.19-27.25L86.19-27.25 86.19-22.71 89.83-22.71Q90.3-22.71 90.5-22.4 90.71-22.09 90.71-21.41L90.71-21.41 90.71-20.87Q90.71-20.19 90.5-19.89 90.3-19.58 89.83-19.58L89.83-19.58 86.19-19.58 86.19-6.08Q86.19-4.3 86.82-3.59 87.44-2.88 88.51-2.88L88.51-2.88Q89.34-2.88 89.79-2.98 90.25-3.08 90.39-3.08L90.39-3.08Q90.78-3.08 91.04-2.29 91.3-1.51 91.3-1.05L91.3-1.05Q91.3 0.24 88.15 0.24L88.15 0.24ZM98.84 9.03Q97.42 9.03 97.42 8.33L97.42 8.33Q97.42 8.15 97.62 7.62L97.62 7.62 101.25-1.22 93.66-21.48Q93.64-21.58 93.59-21.77 93.54-21.95 93.54-22.05L93.54-22.05Q93.54-22.39 94-22.58 94.47-22.78 95.42-22.78L95.42-22.78 95.76-22.78Q97.23-22.78 97.49-22.09L97.49-22.09 101.91-10.33Q102.5-8.79 103.31-5.96L103.31-5.96 103.38-5.96 103.89-7.57Q104.01-7.93 104.31-8.83 104.6-9.72 104.84-10.33L104.84-10.33 109.16-22.09Q109.38-22.78 110.95-22.78L110.95-22.78 111.09-22.78Q112.8-22.78 112.8-22.05L112.8-22.05Q112.8-21.88 112.68-21.46L112.68-21.46 101.55 8.13Q101.16 9.03 99.5 9.03L99.5 9.03 98.84 9.03ZM150.79-22.95Q153.5-22.95 155.55-21.41 157.6-19.87 157.6-15.94L157.6-15.94 157.6-0.88Q157.6-0.39 157.18-0.16 156.77 0.07 155.86 0.07L155.86 0.07 155.72 0.07Q154.79 0.07 154.37-0.16 153.96-0.39 153.96-0.88L153.96-0.88 153.96-15.58Q153.96-17.55 152.9-18.68 151.84-19.8 149.78-19.8L149.78-19.8Q148.08-19.8 146.7-18.81 145.32-17.82 144.46-16.75L144.46-16.75Q144.51-16.16 144.51-15.87L144.51-15.87 144.51-0.88Q144.51 0.07 142.75 0.07L142.75 0.07 142.58 0.07Q140.85 0.07 140.85-0.88L140.85-0.88 140.85-15.58Q140.85-17.55 139.79-18.68 138.73-19.8 136.67-19.8L136.67-19.8Q135.26-19.8 134.09-19.13 132.91-18.46 132.15-17.68 131.38-16.89 131.38-16.8L131.38-16.8 131.38-0.88Q131.38-0.39 130.97-0.16 130.57 0.07 129.67 0.07L129.67 0.07 129.47 0.07Q128.57 0.07 128.17-0.16 127.76-0.39 127.76-0.88L127.76-0.88 127.76-16.11Q127.76-18.95 127.49-20.2 127.23-21.46 127.23-21.58L127.23-21.58Q127.23-22.12 128.04-22.35 128.86-22.58 129.57-22.58L129.57-22.58Q130.18-22.58 130.47-21.92 130.77-21.26 130.9-20.58 131.03-19.9 131.08-19.7L131.08-19.7Q132.28-21.09 134.01-22.02 135.75-22.95 137.68-22.95L137.68-22.95Q139.65-22.95 141.36-22.16 143.07-21.36 143.88-19.36L143.88-19.36Q145.22-20.95 147.03-21.95 148.83-22.95 150.79-22.95L150.79-22.95ZM166.38-28.17Q164.65-28.17 164.65-29.13L164.65-29.13 164.65-31.69Q164.65-32.64 166.38-32.64L166.38-32.64 166.9-32.64Q168.65-32.64 168.65-31.69L168.65-31.69 168.65-29.13Q168.65-28.17 166.9-28.17L166.9-28.17 166.38-28.17ZM166.55 0.07Q164.82 0.07 164.82-0.88L164.82-0.88 164.82-21.83Q164.82-22.78 166.55-22.78L166.55-22.78 166.73-22.78Q168.48-22.78 168.48-21.83L168.48-21.83 168.48-0.88Q168.48 0.07 166.73 0.07L166.73 0.07 166.55 0.07ZM175.1 0.07Q174.1 0.07 173.67-0.1 173.24-0.27 173.24-0.66L173.24-0.66Q173.24-0.95 173.58-1.44L173.58-1.44 180.61-11.62 174.1-21.29Q173.78-21.78 173.78-22.05L173.78-22.05Q173.78-22.44 174.22-22.61 174.66-22.78 175.73-22.78L175.73-22.78 176.15-22.78Q176.88-22.78 177.32-22.64 177.76-22.51 178.03-22.12L178.03-22.12 182.15-15.94Q182.52-15.36 183.03-14.4L183.03-14.4Q183.13-14.58 183.37-14.99 183.62-15.41 183.96-15.94L183.96-15.94 188.11-22.19Q188.5-22.78 190.06-22.78L190.06-22.78 190.23-22.78Q191.23-22.78 191.65-22.61 192.06-22.44 192.06-22.05L192.06-22.05Q192.06-21.75 191.72-21.29L191.72-21.29 185.18-11.74 192.19-1.44Q192.55-0.9 192.55-0.66L192.55-0.66Q192.55-0.29 192.09-0.11 191.63 0.07 190.55 0.07L190.55 0.07 190.16 0.07Q189.4 0.07 188.98-0.06 188.55-0.2 188.31-0.59L188.31-0.59 183.69-7.47Q183.3-8.06 183.08-8.46 182.86-8.86 182.79-8.98L182.79-8.98Q182.74-8.89 182.51-8.48 182.27-8.08 181.86-7.47L181.86-7.47 177.2-0.54Q176.78 0.07 175.24 0.07L175.24 0.07 175.1 0.07ZM206.44 0.24Q201.05 0.24 198.42-2.58 195.8-5.4 195.8-11.21L195.8-11.21Q195.8-16.97 198.36-19.96 200.92-22.95 205.91-22.95L205.91-22.95Q210.35-22.95 212.61-20.07 214.87-17.19 214.87-11.62L214.87-11.62Q214.87-11.38 214.61-10.95 214.35-10.52 214-10.19 213.64-9.86 213.4-9.86L213.4-9.86 199.7-9.86Q199.97-6.23 201.57-4.55 203.17-2.88 206.39-2.88L206.39-2.88Q208.2-2.88 209.51-3.32 210.81-3.76 212.03-4.39L212.03-4.39Q212.16-4.44 212.4-4.57 212.64-4.69 212.74-4.69L212.74-4.69Q213.01-4.69 213.36-4.26 213.72-3.83 213.97-3.31 214.23-2.78 214.23-2.54L214.23-2.54Q214.23-2 213.16-1.34 212.08-0.68 210.29-0.22 208.49 0.24 206.44 0.24L206.44 0.24ZM199.7-12.99L210.98-12.99Q210.98-19.82 205.78-19.82L205.78-19.82Q200.19-19.82 199.7-12.99L199.7-12.99ZM225.24 0.42Q223.41 0.42 221.82-0.05 220.23-0.51 219.29-1.18 218.35-1.86 218.35-2.37L218.35-2.37Q218.35-2.61 218.61-3.15 218.87-3.69 219.22-4.11 219.57-4.54 219.87-4.54L219.87-4.54Q219.94-4.54 220.31-4.3L220.31-4.3Q221.28-3.66 222.37-3.22 223.46-2.78 224.97-2.78L224.97-2.78Q229.22-2.78 229.22-6.3L229.22-6.3Q229.22-7.3 228.82-7.98 228.41-8.67 227.47-9.19 226.53-9.72 224.9-10.21L224.9-10.21Q222.55-10.89 221.25-11.77 219.94-12.65 219.4-13.83 218.87-15.01 218.87-16.7L218.87-16.7Q218.87-18.51 219.78-19.95 220.7-21.39 222.35-22.19 223.99-23 226.07-23L226.07-23Q227.51-23 228.84-22.73 230.17-22.46 230.99-22.03 231.81-21.61 231.81-21.14L231.81-21.14Q231.81-20.8 231.57-20.23 231.34-19.65 231-19.23 230.66-18.8 230.39-18.8L230.39-18.8Q230.34-18.8 229.78-19.1 229.22-19.41 228.35-19.67 227.48-19.92 226.43-19.92L226.43-19.92Q224.77-19.92 223.69-19.18 222.6-18.43 222.6-17.19L222.6-17.19Q222.6-15.72 223.38-14.84 224.16-13.96 225.97-13.4L225.97-13.4Q228.75-12.55 230.22-11.69 231.68-10.84 232.31-9.61 232.93-8.37 232.93-6.37L232.93-6.37Q232.93-4.47 231.9-2.92 230.88-1.37 229.12-0.48 227.36 0.42 225.24 0.42L225.24 0.42Z" opacity="1" transform="matrix(1,0,0,1,0,0)" fill="#ff0000" class="wordmark-text-0" data-fill-palette-color="primary" id="text-0"></path></svg></g></svg></g></svg></g></svg></g><g></g></svg></g></svg></g></svg></g><g><path d="M79.92 91.189A122.216 122.216 0 0 1 315.6 91.189L311.629 91.189A118.245 118.245 0 0 0 83.891 91.189L79.92 91.189M79.92 156.011A122.216 122.216 0 0 0 315.6 156.011L311.629 156.011A118.245 118.245 0 0 1 83.891 156.011L79.92 156.011" fill="#ff0000" stroke="transparent" data-fill-palette-color="tertiary"></path></g></svg></g><defs></defs></svg><rect width="395.52" height="247.2" fill="none" stroke="none" visibility="hidden"></rect></g></svg></g></svg>