<svg xmlns="http://www.w3.org/2000/svg" version="1.1" xmlns:xlink="http://www.w3.org/1999/xlink" xmlns:svgjs="http://svgjs.dev/svgjs" width="1000" height="669" viewBox="0 0 1000 669"><g transform="matrix(1,0,0,1,-0.10453168198836238,0.27085557487924916)"><svg viewBox="0 0 369 247" data-background-color="#ffffff" preserveAspectRatio="xMidYMid meet" height="669" width="1000" xmlns="http://www.w3.org/2000/svg" xmlns:xlink="http://www.w3.org/1999/xlink"><g id="tight-bounds" transform="matrix(1,0,0,1,0.03857219065369577,-0.09999801644963213)"><svg viewBox="0 0 368.92283975028926 247.2" height="247.2" width="368.92283975028926"><g><svg viewBox="0 0 368.92283975028926 247.2" height="247.2" width="368.92283975028926"><g><svg viewBox="0 0 395.52 265.0216616194832" height="247.2" width="368.92283975028926"><g><svg viewBox="0 0 395.52 265.0216616194832" height="265.0216616194832" width="395.52"><g id="textblocktransform"><svg viewBox="0 0 395.52 265.0216616194832" height="265.0216616194832" width="395.52" id="textblock"><g><svg viewBox="0 0 395.52 195.3907822410148" height="195.3907822410148" width="395.52"><g transform="matrix(1,0,0,1,0,0)"><svg width="395.52" viewBox="0.75 -35.04999923706055 70.94999694824219 35.04999923706055" height="195.3907822410148" data-palette-color="#222222"><path d="M0.75-35L25.75-35 25.75-33.5 14-33.5 14 0 12.5 0 12.5-33.5 0.75-33.5 0.75-35ZM50.5-0.05L50.5-1.5 70.2-1.5 70.2-31.45 58.95-7.35 47.7-31.5 47.7 0 46.2-0.05 46.2-35.05 47.7-35.05 58.95-10.9 70.2-35 71.7-35.05 71.7 0 50.5-0.05Z" opacity="1" transform="matrix(1,0,0,1,0,0)" fill="#222222" class="wordmark-text-0" data-fill-palette-color="primary" id="text-0"></path></svg></g></svg></g><g transform="matrix(1,0,0,1,0,241.5178565493446)"><svg viewBox="0 0 232.20979200000002 23.503805070138593" height="23.503805070138593" width="232.20979200000002"><g transform="matrix(1,0,0,1,0,0)"><svg width="232.20979200000002" viewBox="3.8499999046325684 -35.5 357.1199951171875 36.150001525878906" height="23.503805070138593" data-palette-color="#222222"><path d="M26.7-28.5L25.3-27.95Q24.15-30.85 22.05-32.43 19.95-34 15.5-34L15.5-34Q13.05-34 11.3-33.38 9.55-32.75 8.15-31.25 6.75-29.75 6.05-26.93 5.35-24.1 5.35-19.95L5.35-19.95 5.35-15.05Q5.35-10.9 6.05-8.08 6.75-5.25 8.15-3.75 9.55-2.25 11.3-1.63 13.05-1 15.5-1L15.5-1Q20-1 22.65-2.93 25.3-4.85 25.3-7.05L25.3-7.05 25.3-15.5 19.15-15.5 19.15-17 27.1-17 27.1-7.55Q27.1-4.2 24.08-1.85 21.05 0.5 15.5 0.5L15.5 0.5Q9.35 0.5 6.6-3.28 3.85-7.05 3.85-15.05L3.85-15.05 3.85-19.95Q3.85-27.95 6.6-31.73 9.35-35.5 15.5-35.5L15.5-35.5Q20.45-35.5 22.9-33.68 25.35-31.85 26.7-28.5L26.7-28.5ZM47.7-14.55L47.7-14.55 54.5 0 52.85 0 45.85-15Q45.95-15.05 46.72-15.43 47.5-15.8 47.8-15.98 48.1-16.15 48.8-16.6 49.5-17.05 49.85-17.48 50.2-17.9 50.62-18.48 51.05-19.05 51.25-19.78 51.45-20.5 51.45-21.35L51.45-21.35Q51.45-24.5 48.45-26 45.45-27.5 41-27.5L41-27.5 37-27.5 37 0 35.5 0 35.5-29 41-29Q46.9-29 49.92-26.95 52.95-24.9 52.95-21.35L52.95-21.35Q52.95-19.05 51.4-17.28 49.85-15.5 47.7-14.55ZM79.59-3.95L80.7-2.95Q77.95 0.5 71.7 0.5 65.45 0.5 62.75-3.05 60.05-6.6 60.05-14.5 60.05-22.4 62.75-25.95 65.45-29.5 71.7-29.5L71.7-29.5Q78.95-29.5 81.55-24.75L81.55-24.75 69.3-14.5 66.95-14.5 79.59-25.05Q77.4-28 71.7-28L71.7-28Q69.2-28 67.5-27.48 65.8-26.95 64.37-25.53 62.95-24.1 62.25-21.38 61.55-18.65 61.55-14.5 61.55-10.35 62.25-7.63 62.95-4.9 64.37-3.48 65.8-2.05 67.5-1.53 69.2-1 71.7-1L71.7-1Q77.4-1 79.59-3.95L79.59-3.95ZM91.34 0L91.34-1.5 107.64-1.5 97.39-25.65 86.49 0 84.89 0 97.39-29.5 109.89 0 91.34 0ZM111.84-29L134.34-29 134.34-27.5 123.84-27.5 123.84 0 122.34 0 122.34-27.5 111.84-27.5 111.84-29ZM159.34-0.05L159.34-1.5 179.04-1.5 179.04-31.45 167.79-7.35 156.54-31.5 156.54 0 155.04-0.05 155.04-35.05 156.54-35.05 167.79-10.9 179.04-35 180.54-35.05 180.54 0 159.34-0.05ZM189.73-29L191.23-29 191.23-14.5Q191.23-7.05 193.61-4.03 195.98-1 200.13-1 204.28-1 206.66-4.03 209.03-7.05 209.03-14.5L209.03-14.5 209.03-29 210.53-29 210.53-14.5Q210.53 0.5 200.13 0.5 189.73 0.5 189.73-14.5L189.73-14.5 189.73-29ZM227.18-29.6L227.18-29.6Q233.38-29.6 235.98-26.85L235.98-26.85 234.98-25.75Q232.58-28.1 227.38-28.1L227.38-28.1Q219.58-28.1 219.58-21.9L219.58-21.9Q219.58-19.5 221.48-18.07 223.38-16.65 226.11-15.9 228.83-15.15 231.56-14.33 234.28-13.5 236.18-11.68 238.08-9.85 238.08-6.9L238.08-6.9Q238.08-3.45 235.23-1.4 232.38 0.65 226.98 0.65L226.98 0.65Q224.33 0.65 221.76-0.05 219.18-0.75 217.93-2.1L217.93-2.1 218.93-3.2Q221.48-0.85 226.78-0.85L226.78-0.85Q231.63-0.85 234.11-2.65 236.58-4.45 236.58-6.85L236.58-6.85Q236.58-9.35 234.68-10.9 232.78-12.45 230.06-13.23 227.33-14 224.61-14.83 221.88-15.65 219.98-17.4 218.08-19.15 218.08-22L218.08-22Q218.08-25.85 220.66-27.73 223.23-29.6 227.18-29.6ZM245.38 0L245.38-29 246.88-29 246.88 0 245.38 0ZM257.83-3.05Q255.13-6.6 255.13-14.5 255.13-22.4 257.83-25.95 260.53-29.5 266.78-29.5 273.03-29.5 275.78-26.05L275.78-26.05 274.68-25.05Q272.48-28 266.78-28L266.78-28Q264.28-28 262.58-27.48 260.88-26.95 259.45-25.53 258.03-24.1 257.33-21.38 256.63-18.65 256.63-14.5 256.63-10.35 257.33-7.63 258.03-4.9 259.45-3.48 260.88-2.05 262.58-1.53 264.28-1 266.78-1L266.78-1Q272.48-1 274.68-3.95L274.68-3.95 275.78-2.95Q273.03 0.5 266.78 0.5 260.53 0.5 257.83-3.05ZM302.47-0.05L302.47-1.5 322.17-1.5 322.17-31.45 310.92-7.35 299.67-31.5 299.67 0 298.17-0.05 298.17-35.05 299.67-35.05 310.92-10.9 322.17-35 323.67-35.05 323.67 0 302.47-0.05ZM333.37 0L333.37-29 334.87-29 334.87 0 333.37 0ZM359.67-29L351.97-15.65 360.97 0 359.22 0 351.07-14.1 342.92 0 341.17 0 350.17-15.65 342.47-29 344.22-29 351.07-17.15 357.92-29 359.67-29Z" opacity="1" transform="matrix(1,0,0,1,0,0)" fill="#222222" class="slogan-text-1" data-fill-palette-color="secondary" id="text-1"></path></svg></g></svg></g></svg></g></svg></g></svg></g></svg></g><defs></defs></svg><rect width="368.92283975028926" height="247.2" fill="none" stroke="none" visibility="hidden"></rect></g></svg></g></svg>